<svg id="Layer_1" data-name="Layer 1" xmlns="http://www.w3.org/2000/svg" viewBox="0 0 343.18 260.16"><defs><style>.cls-1{fill:#21a69f;}.cls-2{fill:#264677;}.cls-18,.cls-19,.cls-20,.cls-21,.cls-22,.cls-23,.cls-25,.cls-3{fill:#244575;}.cls-4{fill:#21406c;}.cls-5{fill:#1d3b63;}.cls-11,.cls-6,.cls-7{fill:#d6b294;}.cls-12,.cls-6,.cls-9{stroke:#d6b294;}.cls-11,.cls-12,.cls-16,.cls-17,.cls-19,.cls-20,.cls-21,.cls-22,.cls-23,.cls-25,.cls-26,.cls-6,.cls-7,.cls-8{stroke-miterlimit:10;}.cls-7{stroke:#050404;}.cls-8{fill:#050404;}.cls-11,.cls-16,.cls-17,.cls-8{stroke:#000;}.cls-9{fill:#755746;stroke-linejoin:round;stroke-width:0.5px;}.cls-10{fill:#fff;}.cls-13{fill:#274876;}.cls-14{fill:#4c70ad;}.cls-15{fill:#6a6e75;}.cls-15,.cls-18,.cls-19,.cls-20,.cls-21,.cls-23,.cls-24{opacity:0.5;}.cls-17,.cls-26{fill:none;}.cls-19{stroke:#3b5172;}.cls-20,.cls-25,.cls-26{stroke:#385887;}.cls-21{stroke:#fa0f0c;}.cls-22,.cls-23{stroke:#244575;}</style></defs><title>flatCharacter</title><path class="cls-1" d="M757.88,159.88" transform="translate(-265.66 -103.24)"/><path class="cls-1" d="M787.4,163.48" transform="translate(-265.66 -103.24)"/><path class="cls-1" d="M778,157.72" transform="translate(-265.66 -103.24)"/><path class="cls-1" d="M808.28,157" transform="translate(-265.66 -103.24)"/><path class="cls-2" d="M360.16,332.68" transform="translate(-265.66 -103.24)"/><path class="cls-2" d="M258.2,280.8" transform="translate(-265.66 -103.24)"/><path class="cls-3" d="M408.44,253.28a113.47,113.47,0,0,0-28.08,23.17c-21.25,24.38-25.64,51.29-26.79,63.26l145.33,2.18a73.91,73.91,0,0,0-1.78-41.49c-11.43-33-43.12-45.89-48.28-47.9Z" transform="translate(-265.66 -103.24)"/><ellipse class="cls-4" cx="480.11" cy="306.73" rx="18.14" ry="32.92" transform="translate(-346.5 103.86) rotate(-22.5)"/><ellipse class="cls-4" cx="382.51" cy="306.73" rx="32.92" ry="18.14" transform="translate(-312.93 439.48) rotate(-67.5)"/><path class="cls-5" d="M449.32,256.6c-.76,10.15-9.44,18.16-19.84,18.45-10.68.31-20-7.59-21-18a13,13,0,0,1,3.42-7.13c2.27-2.34,4.84-3.09,7.93-3.94,7.73-2.14,14.14-1,18.54-.18,6.57,1.23,8.16,2.83,8.76,3.52A10.27,10.27,0,0,1,449.32,256.6Z" transform="translate(-265.66 -103.24)"/><ellipse class="cls-6" cx="163.24" cy="147.14" rx="12.01" ry="10.04"/><rect class="cls-6" x="151.99" y="123.54" width="22.08" height="26.5"/><path class="cls-6" d="M454.27,213.74c0,11.47-6.5,23.27-16.63,27.84a20.38,20.38,0,0,1-9.39,2c-12.37-.53-26-13.8-26-29.84,0-16.48,11.65-29.84,26-29.84S454.27,197.26,454.27,213.74Z" transform="translate(-265.66 -103.24)"/><path class="cls-7" d="M454.27,213.74c0,11.47-6.5,23.27-16.63,27.84a20.38,20.38,0,0,1-9.39,2c-12.37-.53-26-13.8-26-29.84,0-14.45,11-29.84,26-29.84C442.62,183.9,454.27,197.26,454.27,213.74Z" transform="translate(-265.66 -103.24)"/><path class="cls-8" d="M403.67,218.61l5.84-28,16.43-3.48,10.5,1.87a14.49,14.49,0,0,1,4.46,1.72,15.16,15.16,0,0,1,5.41,5.54l7.43,19.62a4.06,4.06,0,0,0,1.1-1.41c.33-.7.46-1.54-1-7.16-.19-.72-.56-2.11-1.13-3.9-.23-.72-.19-.56-.29-.9a22.4,22.4,0,0,1-.94-5.41c0-.48,0-.87,0-1.14s0-.32,0-.33c.08-6.76-9.41-16.5-9.41-16.5-.81-.83-2.06-2.06-3.7-3.47-4.95-.21-8.34-.15-8.41.41,0,.4,1.63.8,1.57,1.19s-1.76.57-9.58,0c-2.71-.18-5-.37-6.54-.51l-6,7.08a27.31,27.31,0,0,0-4.27,4.66,28.29,28.29,0,0,0-4.55,9.81,81,81,0,0,0,.54,12.38,24.28,24.28,0,0,0,.8,3.63A22.57,22.57,0,0,0,403.67,218.61Z" transform="translate(-265.66 -103.24)"/><path class="cls-6" d="M454.27,216.18a7.45,7.45,0,0,1,1.72-1.09l.91,1.39a28.22,28.22,0,0,1,0,4.71c-.22,2.6-.66,3.39-1,3.88-.15.19-1.34,1.71-2.53,1.41-.89-.23-1.29-1.36-1.48-1.88A8.13,8.13,0,0,1,454.27,216.18Z" transform="translate(-265.66 -103.24)"/><rect x="146.25" y="101.28" width="11" height="2.11" rx="0.57"/><rect x="168.57" y="101.28" width="11" height="2.11" rx="0.57"/><ellipse class="cls-8" cx="151.1" cy="108.06" rx="0.66" ry="0.68"/><ellipse class="cls-8" cx="173.06" cy="108.06" rx="0.66" ry="0.68"/><path class="cls-6" d="M400,216.82a5.76,5.76,0,0,0-1.17.38c-.48.32-1,1.12-.83,3.29a6.14,6.14,0,0,0,2.67,6.08c.36.2,2,1.13,3.09.44,2.53-1.62.16-10.75-1.69-10.88A16.6,16.6,0,0,0,400,216.82Z" transform="translate(-265.66 -103.24)"/><path class="cls-9" d="M428.06,211c-.74,8.45-1.51,11.43,0,10.18l1.51-1.26.75-.47-1.56-1.64v-5.46" transform="translate(-265.66 -103.24)"/><path class="cls-10" d="M428.25,227.89c3.2.14,5.95-1.1,7-3.29a4.75,4.75,0,0,0,.46-2.11" transform="translate(-265.66 -103.24)"/><polyline class="cls-11" points="188.31 113.85 189.4 112.95 190.37 112.95 190.37 114.78 190.37 116.08"/><path class="cls-11" d="M402.23,218.61l-.84-1.41-2.19.71a14.43,14.43,0,0,0-.58,2,6.81,6.81,0,0,0,.58,1.51l.46,1.08" transform="translate(-265.66 -103.24)"/><path class="cls-12" d="M418.73,241.5l6.19,5.46c2.22.2,4,.42,5.21.59,2.67.37,3.7.62,5.22.18,1-.3,2.51-.74,3-1.94s-.26-2.17.47-3.82a4,4,0,0,1,.39-.7c-1,.47-2.45,1.12-4.26,1.78-2.57.94-3.91,1.1-5,1.48-1.54.53-7.56-2.12-7.56-2.12L419,241h-1.25" transform="translate(-265.66 -103.24)"/><path class="cls-12" d="M414.78,238.8" transform="translate(-265.66 -103.24)"/><path class="cls-5" d="M444.5,250.31" transform="translate(-265.66 -103.24)"/><path class="cls-5" d="M466.26,250.61" transform="translate(-265.66 -103.24)"/><path class="cls-5" d="M454.76,247.12" transform="translate(-265.66 -103.24)"/><path class="cls-13" d="M375.6,257.09" transform="translate(-265.66 -103.24)"/><path class="cls-3" d="M396.31,358.87l-32.59-8.45a13.44,13.44,0,0,1-9.88-16.54l.47-1.69a14.08,14.08,0,0,1,17.17-9.52l32.59,8.45A13.45,13.45,0,0,1,414,347.66l-.47,1.69A14.07,14.07,0,0,1,396.31,358.87Z" transform="translate(-265.66 -103.24)"/><path class="cls-3" d="M457.51,357.21l32.58-8.45A13.45,13.45,0,0,0,500,332.22l-.47-1.69A14.09,14.09,0,0,0,482.33,321l-32.58,8.45A13.45,13.45,0,0,0,439.86,346l.47,1.69A14.08,14.08,0,0,0,457.51,357.21Z" transform="translate(-265.66 -103.24)"/><path class="cls-14" d="M462.79,358.67H400.62l-11.19-57.48h84.24Q468.23,329.93,462.79,358.67Z" transform="translate(-265.66 -103.24)"/><rect class="cls-10" x="133.56" y="248.05" width="65.07" height="7.38" rx="2.22"/><rect class="cls-15" y="253.58" width="343.18" height="6.59"/><ellipse class="cls-16" cx="72.27" cy="233.21" rx="7.42" ry="2.53"/><ellipse class="cls-17" cx="71.94" cy="232.09" rx="9.06" ry="3.64"/><polyline class="cls-17" points="62.89 231.38 64.85 252.74 78.82 252.74 81 231.38"/><polygon class="cls-17" points="81 236.75 83.83 236.75 82.42 243.83 79.69 243.83 81 236.75"/><path class="cls-17" d="M332,330.1s1.16-.27,1-3.24-4.5-4.18-3.2-6.75l1.31-2.56" transform="translate(-265.66 -103.24)"/><path class="cls-17" d="M337.6,328.79s1.2-4,.33-5-1.53-2.31-.33-3.39-.65-4.19-.65-4.19" transform="translate(-265.66 -103.24)"/><path class="cls-17" d="M343.6,330.1s.73.17,0-2.66,2.33-4.25,3.06-5.57,0-3.74,0-3.74" transform="translate(-265.66 -103.24)"/><rect class="cls-18" x="9.67" y="147.08" width="66.77" height="43.3"/><line class="cls-19" x1="16.89" y1="160.43" x2="33.88" y2="160.43"/><line class="cls-19" x1="21.24" y1="167.05" x2="68.29" y2="167.05"/><line class="cls-19" x1="16.89" y1="173.23" x2="68.29" y2="173.23"/><line class="cls-19" x1="16.89" y1="179.01" x2="68.29" y2="179.01"/><rect class="cls-20" x="259.68" y="122.01" width="63.55" height="84.41"/><rect class="cls-18" x="268.87" y="135.83" width="13.68" height="16.28"/><rect class="cls-18" x="268.87" y="157.45" width="13.68" height="16.28"/><rect class="cls-18" x="268.87" y="179.06" width="13.68" height="16.28"/><polyline class="cls-21" points="273.98 143.97 276.33 145.73 285.45 138.61"/><polyline class="cls-21" points="273.98 167.25 276.33 169.01 285.45 161.89"/><polyline class="cls-21" points="273.98 188.87 276.33 190.63 285.45 183.51"/><path class="cls-22" d="M557.12,247.21" transform="translate(-265.66 -103.24)"/><line class="cls-23" x1="310.8" y1="142.3" x2="287.17" y2="142.3"/><line class="cls-23" x1="287.17" y1="147.12" x2="314.06" y2="147.12"/><line class="cls-23" x1="310.8" y1="163.92" x2="287.17" y2="163.92"/><line class="cls-23" x1="287.17" y1="168.74" x2="314.06" y2="168.74"/><line class="cls-23" x1="310.8" y1="185.54" x2="287.17" y2="185.54"/><line class="cls-23" x1="287.17" y1="190.35" x2="314.06" y2="190.35"/><rect class="cls-20" x="214.81" y="3.5" width="114.3" height="74.73"/><rect class="cls-20" x="225.04" y="14.32" width="92.37" height="8.78"/><rect class="cls-20" x="225.04" y="32.68" width="48.85" height="37.22"/><rect class="cls-20" x="285.64" y="32.68" width="31.78" height="8.18"/><rect class="cls-20" x="285.64" y="46.45" width="31.78" height="4.84"/><rect class="cls-20" x="285.64" y="59.32" width="31.78" height="5.39"/><rect class="cls-20" x="18.6" y="0.5" width="85.13" height="95.74"/><g class="cls-24"><path class="cls-3" d="M314.17,133.27c1.28,4.87-2.56,10.62-7.11,10.63s-8.43-5.76-7.15-10.63a7.29,7.29,0,0,1,14.26,0Z" transform="translate(-265.66 -103.24)"/><path class="cls-3" d="M310.68,145.46H303.1c-.31-2.66-.63-5.33-.94-8h9.75Z" transform="translate(-265.66 -103.24)"/><path class="cls-3" d="M310.5,146.56h-7.35l-.29-.62h8Z" transform="translate(-265.66 -103.24)"/><polyline class="cls-25" points="37.78 44.03 37.78 45.1 41.18 48.86 44.35 45.47 44.35 44.03"/><line class="cls-26" x1="41.38" y1="22.14" x2="41.06" y2="10.1"/><line class="cls-26" x1="46.25" y1="22.14" x2="50.97" y2="14.87"/><line class="cls-26" x1="35.5" y1="22.14" x2="31.75" y2="14.87"/><line class="cls-26" x1="50.97" y1="27.41" x2="57.48" y2="22.82"/><line class="cls-26" x1="29.64" y1="27.41" x2="24.48" y2="24.27"/><line class="cls-26" x1="31.75" y1="34.22" x2="26.83" y2="37.19"/><line class="cls-26" x1="50.97" y1="34.22" x2="56.12" y2="37.19"/></g><line class="cls-20" x1="68.18" y1="31.01" x2="96.5" y2="31.01"/><line class="cls-20" x1="65.41" y1="40.66" x2="96.5" y2="40.66"/><line class="cls-20" x1="57.48" y1="50.69" x2="96.5" y2="50.69"/><rect class="cls-20" x="56.12" y="62.21" width="40.38" height="27"/><line class="cls-20" x1="26.83" y1="62.21" x2="48.61" y2="62.21"/><line class="cls-20" x1="27.06" y1="79.25" x2="48.76" y2="79.25"/><line class="cls-20" x1="27.06" y1="72.43" x2="48.61" y2="72.43"/><line class="cls-20" x1="26.83" y1="86.49" x2="48.76" y2="86.49"/></svg>